# xmcd
#
# Track frame offsets:
# 150
# 19415
# 38526
# 56481
# 76804
# 94324
# 110574
# 129684
# 148613
# 166959
# 186731
#
# Disc length: 2705 seconds
#
#
# Revision: 0
# Processed by: cddbd v1.5.1PL2 Copyright (c) Steve Scherf et al.
# Submitted via: FreeRIP 2.945 
#
DISCID=980a8f0b
DTITLE=Larry Crane - Larry Crane
DYEAR=1994
DGENRE=
TTITLE0=Leave A Little Time
TTITLE1=Better Road
TTITLE2=When Times Get Rough
TTITLE3=Tick Of The Clock
TTITLE4=Independence Day
TTITLE5=I'll Still Love You
TTITLE6=Piece Of Paper
TTITLE7=Silent Make A Sound
TTITLE8=Pale Wind
TTITLE9=King Of The Hill
TTITLE10=Who's That Man?
EXTD=
EXTT0=
EXTT1=
EXTT2=
EXTT3=
EXTT4=
EXTT5=
EXTT6=
EXTT7=
EXTT8=
EXTT9=
EXTT10=
PLAYORDER=
